:SAMPLES-PER-SECOND 30
:FULLY-SPECIFIED
:DEGREES
255
root  -4.02508 34.6 -6.51339 6.21769 -41.6223 1.31893
RightUpLeg  -8.30701 -13.4907 -5.10104
RightLeg  9.91486 -3.4516 -0.375284
RightFoot  4.8042 0.0287729 -0.0853349
RightToes  -29.0273 -0.138168 -0.245943
Spine  -0.296029 2.49031 -0.56508
Spine1  -0.675969 5.18318 -0.449524
HEad  -64.5933 -12.917 7.95569
LeftShoulder1  -1.94126e-019 -3.10601e-018 -2.51263e-017
LeftArm  -7.62045 20.107 -81.8188
LeftForeArm  28.1688 -20.3318 -3.15786
LeftHand  -0.397225 -0.932135 7.42586
RightShoulder  -4.96962e-017 0 -2.36833e-017
RightArm  -8.64518 -4.24886 82.8729
RightForeArm  66.5945 75.7337 37.2974
RightHand  0.340747 -7.81057 -17.1491
LeftUpLeg  -13.924 -1.29589 -2.15017
LeftLeg  11.2441 13.706 1.80015
LeftFoot  5.89288 -0.0732274 1.63726
LeftToes  -16.6582 1.34695e-006 1.12385e-007
256
root  -4.03121 34.6085 -6.48011 6.45796 -40.2113 1.27907
RightUpLeg  -7.84723 -13.9888 -5.05134
RightLeg  9.27609 -4.34199 -0.423178
RightFoot  4.96006 0.0350625 -0.175477
RightToes  -28.9247 -0.138541 -0.246297
Spine  -0.578939 1.6712 -0.438559
Spine1  -1.21916 3.49392 -0.162152
HEad  -62.1802 -11.9021 6.45788
LeftShoulder1  -1.94126e-019 -3.10601e-018 -2.51263e-017
LeftArm  -7.16065 22.1056 -81.3551
LeftForeArm  26.4766 -21.6388 -3.34127
LeftHand  -0.400529 -0.724825 7.72278
RightShoulder  -4.96962e-017 0 -2.36833e-017
RightArm  -9.00946 -2.32097 84.4121
RightForeArm  73.6096 77.6691 45.0991
RightHand  0.534775 -9.24028 -16.7068
LeftUpLeg  -14.1458 -1.62482 -2.15492
LeftLeg  11.0717 12.6478 1.62513
LeftFoot  6.05861 -0.0686367 1.55199
LeftToes  -16.8311 1.34695e-006 1.12385e-007
257
root  -4.0615 34.6211 -6.45029 6.47873 -39.7475 1.28991
RightUpLeg  -7.58387 -13.7864 -5.0481
RightLeg  9.0424 -4.9962 -0.466326
RightFoot  5.00448 0.0392009 -0.234919
RightToes  -28.723 -0.138863 -0.246601
Spine  -0.796199 1.35675 -0.415231
Spine1  -1.64911 2.85447 -0.106863
HEad  -58.8305 -11.8436 5.98914
LeftShoulder1  -1.94126e-019 -3.10601e-018 -2.51263e-017
LeftArm  -6.02944 22.5979 -81.1597
LeftForeArm  27.387 -20.3078 -3.13862
LeftHand  -0.413181 -0.837984 7.82843
RightShoulder  -4.96962e-017 0 -2.36833e-017
RightArm  -8.36723 -0.767354 84.8975
RightForeArm  63.6942 75.6421 37.7888
RightHand  0.870252 -11.3725 -17.2531
LeftUpLeg  -13.8424 -1.73381 -2.16323
LeftLeg  10.4503 12.3106 1.4481
LeftFoot  6.30219 -0.0703639 1.56423
LeftToes  -16.8995 1.34695e-006 1.12385e-007
258
root  -4.10583 34.6354 -6.40947 6.11703 -40.373 1.42401
RightUpLeg  -7.38225 -13.1608 -5.22302
RightLeg  9.13093 -4.99289 -0.473796
RightFoot  5.02887 0.0394117 -0.238265
RightToes  -28.6926 -0.139136 -0.246857
Spine  -0.804339 1.61502 -0.528244
Spine1  -1.66573 3.36281 -0.333645
HEad  -56.9288 -12.7163 6.97295
LeftShoulder1  -1.94126e-019 -3.10601e-018 -2.51263e-017
LeftArm  -4.85682 21.4639 -81.0622
LeftForeArm  30.525 -17.1675 -2.73832
LeftHand  -0.426942 -1.31011 7.55292
RightShoulder  -4.96962e-017 0 -2.36833e-017
RightArm  -7.12621 -0.553713 84.0162
RightForeArm  50.9944 70.4474 26.35
RightHand  0.985028 -12.7784 -15.8521
LeftUpLeg  -12.9015 -1.90684 -2.23937
LeftLeg  9.43556 13.1374 1.31064
LeftFoot  6.59737 -0.0816587 1.72525
LeftToes  -16.9183 1.34695e-006 1.12385e-007
259
root  -4.13496 34.6347 -6.38042 5.74484 -41.3603 1.55688
RightUpLeg  -7.44604 -12.836 -5.40142
RightLeg  9.53202 -4.33505 -0.442059
RightFoot  4.89624 0.0346464 -0.170529
RightToes  -28.659 -0.139363 -0.247069
Spine  -0.719415 1.96238 -0.663661
Spine1  -1.51038 4.07581 -0.620022
HEad  -56.1919 -13.4051 8.08811
LeftShoulder1  -1.94126e-019 -3.10601e-018 -2.51263e-017
LeftArm  -6.66075 19.9432 -81.2415
LeftForeArm  35.4552 -13.7104 -2.30206
LeftHand  -0.421058 -2.09246 6.72873
RightShoulder  -4.96962e-017 0 -2.36833e-017
RightArm  -5.8072 0.58718 83.5583
RightForeArm  37.1304 59.151 15.4645
RightHand  0.770394 -11.7901 -14.4814
LeftUpLeg  -12.1664 -1.95813 -2.32626
LeftLeg  8.85541 14.203 1.27142
LeftFoot  6.66925 -0.0921354 1.87432
LeftToes  -16.7318 1.34695e-006 1.12385e-007
260
root  -4.14558 34.6013 -6.36882 5.45873 -42.2757 1.68187
RightUpLeg  -7.84654 -12.5271 -5.54926
RightLeg  10.3932 -3.73908 -0.438205
RightFoot  4.48614 0.0282228 -0.0791348
RightToes  -28.7429 -0.139546 -0.247238
Spine  -0.507181 2.37792 -0.69937
Spine1  -1.12881 4.99737 -0.739596
HEad  -56.1571 -13.7382 8.38506
LeftShoulder1  -1.94126e-019 -3.10601e-018 -2.51263e-017
LeftArm  -9.36673 18.6314 -81.5991
LeftForeArm  37.5597 -11.3627 -1.96108
LeftHand  -0.447743 -1.83979 7.37355
RightShoulder  -4.96962e-017 0 -2.36833e-017
RightArm  -2.49334 2.01109 83.3185
RightForeArm  36.1575 49.573 10.3813
RightHand  0.77679 -10.4297 -18.2558
LeftUpLeg  -12.0996 -1.46348 -2.43601
LeftLeg  9.34581 14.591 1.42994
LeftFoot  6.30789 -0.09085 1.84202
LeftToes  -16.7046 1.34695e-006 1.12385e-007
261
root  -4.12044 34.5768 -6.36171 5.30615 -42.7129 1.85593
RightUpLeg  -8.2763 -12.4235 -5.71929
RightLeg  11.0905 -3.43576 -0.445161
RightFoot  4.15172 0.0248541 -0.0314342
RightToes  -28.8177 -0.139688 -0.247367
Spine  -0.182131 2.96494 -0.633616
Spine1  -0.480144 6.20346 -0.625656
HEad  -57.927 -14.7442 8.34684
LeftShoulder1  -1.94126e-019 -3.10601e-018 -2.51263e-017
LeftArm  -11.1267 17.5234 -81.9959
LeftForeArm  36.3961 -11.5369 -2.00512
LeftHand  -0.457609 -1.42081 7.96229
RightShoulder  -4.96962e-017 0 -2.36833e-017
RightArm  -0.816085 -0.52 81.391
RightForeArm  40.8345 54.3323 12.2046
RightHand  1.23705 -11.5001 -23.4104
LeftUpLeg  -12.3229 -1.17092 -2.60424
LeftLeg  9.90974 14.6901 1.58383
LeftFoot  5.98502 -0.0871617 1.77459
LeftToes  -16.4966 1.34695e-006 1.12385e-007
262
root  -4.06453 34.5847 -6.36014 5.73633 -41.9294 1.80277
RightUpLeg  -8.5935 -13.0965 -5.66397
RightLeg  11.1397 -3.56415 -0.464913
RightFoot  4.2496 0.0262529 -0.051897
RightToes  -28.8712 -0.13979 -0.247457
Spine  -0.125877 2.95052 -0.631684
Spine1  -0.353207 6.14885 -0.611066
HEad  -59.6762 -15.1217 8.3094
LeftShoulder1  -1.94126e-019 -3.10601e-018 -2.51263e-017
LeftArm  -13.0701 18.1937 -81.8335
LeftForeArm  33.6369 -14.5087 -2.4787
LeftHand  -0.442854 -0.966567 8.22374
RightShoulder  -4.96962e-017 0 -2.36833e-017
RightArm  -4.56111 -4.29962 80.9481
RightForeArm  45.3071 65.6552 20.264
RightHand  0.791271 -9.95423 -20.3688
LeftUpLeg  -13.1416 -1.65593 -2.60473
LeftLeg  10.5294 14.3461 1.70287
LeftFoot  5.90525 -0.083688 1.71349
LeftToes  -16.4709 1.34695e-006 1.12385e-007
263
root  -4.02056 34.5966 -6.33901 6.29357 -40.7224 1.66338
RightUpLeg  -8.60122 -14.2433 -5.54527
RightLeg  10.6844 -3.61833 -0.442728
RightFoot  4.52486 0.0282557 -0.0810238
RightToes  -29.1045 -0.139855 -0.247512
Spine  -0.21582 2.21628 -0.498708
Spine1  -0.507905 4.63001 -0.313473
HEad  -59.5743 -13.9674 7.23536
LeftShoulder1  -1.94126e-019 -3.10601e-018 -2.51263e-017
LeftArm  -13.7036 20.0689 -81.5872
LeftForeArm  29.0047 -17.3914 -2.83701
LeftHand  -0.418973 -0.466985 8.4069
RightShoulder  -4.96962e-017 0 -2.36833e-017
RightArm  -7.0823 -4.75813 81.6946
RightForeArm  58.419 74.6894 35.5447
RightHand  0.38973 -8.55296 -15.1056
LeftUpLeg  -13.9715 -1.96597 -2.57105
LeftLeg  11.0078 13.4396 1.71001
LeftFoot  5.8555 -0.0764176 1.59708
LeftToes  -16.2485 1.34695e-006 1.12385e-007
264
root  -4.01309 34.5939 -6.32978 6.63849 -40.1316 1.57521
RightUpLeg  -8.58384 -14.3623 -5.42483
RightLeg  10.3407 -4.09374 -0.475955
RightFoot  4.65345 0.0315933 -0.129257
RightToes  -29.2056 -0.139885 -0.247533
Spine  -0.364906 1.50935 -0.341829
Spine1  -0.792541 3.18922 0.0233982
HEad  -57.3648 -12.5747 5.80596
LeftShoulder1  -1.94126e-019 -3.10601e-018 -2.51263e-017
LeftArm  -13.1668 21.879 -81.3885
LeftForeArm  26.5594 -18.9249 -2.99911
LeftHand  -0.426002 -0.274037 8.82075
RightShoulder  -4.96962e-017 0 -2.36833e-017
RightArm  -7.07461 -2.2545 82.7703
RightForeArm  69.5605 77.6593 46.7286
RightHand  0.474155 -9.47533 -14.1955
LeftUpLeg  -14.3686 -1.73293 -2.55139
LeftLeg  11.1079 12.61 1.62838
LeftFoot  5.8052 -0.0696673 1.49321
LeftToes  -16.1757 1.34695e-006 1.12385e-007
265
root  -4.03062 34.5979 -6.31189 6.64188 -40.5289 1.62107
RightUpLeg  -8.58314 -13.5891 -5.45342
RightLeg  10.1972 -4.47175 -0.508516
RightFoot  4.69492 0.0336741 -0.15956
RightToes  -28.9998 -0.139883 -0.247522
Spine  -0.430253 1.42208 -0.333953
Spine1  -0.926878 3.02941 0.0322496
HEad  -54.7203 -12.355 5.46359
LeftShoulder1  -1.94126e-019 -3.10601e-018 -2.51263e-017
LeftArm  -11.5204 22.1158 -81.2846
LeftForeArm  27.28 -18.2815 -2.90588
LeftHand  -0.449645 -0.390871 9.12863
RightShoulder  -4.96962e-017 0 -2.36833e-017
RightArm  -6.37187 0.162951 83.389
RightForeArm  63.3404 76.6083 42.521
RightHand  0.849619 -11.5481 -16.4242
LeftUpLeg  -14.034 -1.57861 -2.58288
LeftLeg  10.5185 12.8654 1.52771
LeftFoot  5.94076 -0.0730297 1.55176
LeftToes  -16.281 1.34695e-006 1.12385e-007
266
root  -4.06227 34.616 -6.30042 6.64792 -41.6064 1.61043
RightUpLeg  -8.72231 -12.7484 -5.42375
RightLeg  10.0782 -4.3046 -0.480464
RightFoot  4.91931 0.0338934 -0.163287
RightToes  -29.0497 -0.13985 -0.247483
Spine  -0.439319 1.78252 -0.437587
Spine1  -0.949331 3.75695 -0.182048
HEad  -53.4391 -13.0963 6.40106
LeftShoulder1  -1.94126e-019 -3.10601e-018 -2.51263e-017
LeftArm  -10.093 20.978 -81.2272
LeftForeArm  30.1484 -16.0542 -2.62689
LeftHand  -0.446105 -0.897586 8.36839
RightShoulder  -4.96962e-017 0 -2.36833e-017
RightArm  -5.10635 0.320166 82.8552
RightForeArm  53.966 73.6515 33.278
RightHand  1.24109 -13.5985 -17.7728
LeftUpLeg  -13.4575 -1.47777 -2.52974
LeftLeg  9.65048 13.829 1.43022
LeftFoot  6.19818 -0.0830404 1.71962
LeftToes  -16.453 1.34695e-006 1.12385e-007
